<?xml version="1.0" encoding="UTF-8"?>
<svg id="Capa_2" xmlns="http://www.w3.org/2000/svg" viewBox="0 0 28.25 26.54">
  <defs>
    <style>
      .cls-1 {
        stroke-linejoin: round;
      }

      .cls-1, .cls-2 {
        fill: none;
        stroke: #ed7548;
        stroke-width: .75px;
      }

      .cls-2 {
        stroke-miterlimit: 10;
      }
    </style>
  </defs>
  <g id="Capa_1-2" data-name="Capa_1">
    <g>
      <g>
        <path class="cls-2" d="M18.91,20.1c-1.96,1.63-4.49,2.6-7.25,2.6-3.96,0-7.44-2.01-9.45-5.06h0c-1.16-1.75-1.83-3.85-1.83-6.1s.67-4.35,1.83-6.11h0C4.23,2.39,7.71.38,11.66.38s7.44,2.01,9.45,5.06h0c1.16,1.75,1.84,3.85,1.84,6.11,0,1.49-.29,2.9-.83,4.2"/>
        <line class="cls-2" x1="22.95" y1="11.54" x2=".37" y2="11.54"/>
        <g>
          <path class="cls-2" d="M11.66.38s-5.6,3.37-5.6,11.17,5.6,11.17,5.6,11.17"/>
          <line class="cls-2" x1="11.66" y1=".38" x2="11.66" y2="22.71"/>
        </g>
        <path class="cls-2" d="M11.66.38c7.43,5.58,7.29,16.83,0,22.33"/>
        <path class="cls-2" d="M21.12,5.44c-.99.3-2.95.84-4.98,1.13h0c-1.33.19-2.85.32-4.47.32s-3.14-.13-4.47-.32h0c-2.03-.29-3.99-.83-4.98-1.13"/>
        <path class="cls-2" d="M2.21,17.65h0c.95-.29,2.79-.8,4.72-1.09.08-.01.17-.03.26-.04h0c1.33-.19,2.84-.32,4.47-.32s3.14.13,4.48.32h0l.13.02c.95.14,1.88.33,2.69.53"/>
      </g>
      <polygon class="cls-1" points="19.03 13.89 18.83 24.11 21.73 21.51 24.32 26.16 26.7 24.86 24.11 20.21 27.88 19.17 19.03 13.89"/>
    </g>
  </g>
</svg>