<?xml version="1.0" encoding="UTF-8"?>
<svg id="Capa_2" xmlns="http://www.w3.org/2000/svg" viewBox="0 0 26.25 31.13">
  <defs>
    <style>
      .cls-1 {
        stroke-linecap: round;
        stroke-linejoin: round;
      }

      .cls-1, .cls-2 {
        fill: none;
        stroke: #70b695;
        stroke-width: .75px;
      }

      .cls-2 {
        stroke-miterlimit: 10;
      }
    </style>
  </defs>
  <g id="Capa_1-2" data-name="Capa_1">
    <g>
      <path class="cls-1" d="M.38,30.76c0-1.93.29-5.35,2.32-7.9,1.25-1.57,5.09-1.88,6.71-2.13v-1.67"/>
      <path class="cls-1" d="M16.85,19.05v1.67c1.62.25,5.45.56,6.71,2.13,2.03,2.55,2.32,5.97,2.32,7.9"/>
      <path class="cls-1" d="M20.14,11.2c-.18-.05-.37-.02-.56.07-.23-3.87-1.48-7.37-6.46-7.37s-6.23,3.5-6.46,7.37c-.19-.09-.37-.12-.56-.07-.66.17-.97,1.25-.68,2.42.26,1.06.92,1.82,1.53,1.81.87,3.01,3.3,4.83,6.17,4.83s5.3-1.82,6.17-4.83c.62,0,1.28-.75,1.53-1.81.28-1.16-.02-2.25-.68-2.42Z"/>
      <path class="cls-1" d="M16.7,23.18c3.01-.81,5.73-3.33,6.59-6.26"/>
      <path class="cls-1" d="M4.05,10.16h0v6.33h0c-1.68,0-3.04-1.36-3.04-3.04v-.24c0-1.68,1.36-3.04,3.04-3.04Z"/>
      <path class="cls-1" d="M2.99,10.16C3.09,4.73,7.9.38,13.12.38s10.03,4.35,10.14,9.78"/>
      <path class="cls-1" d="M25.25,10.16h0v6.33h0c-1.68,0-3.04-1.36-3.04-3.04v-.24c0-1.68,1.36-3.04,3.04-3.04Z" transform="translate(47.45 26.64) rotate(180)"/>
      <polygon class="cls-2" points="16.91 24.22 13.68 24.84 13.29 22.84 16.51 22.22 16.91 24.22"/>
    </g>
  </g>
</svg>