<?xml version="1.0" encoding="UTF-8"?>
<svg id="Capa_2" xmlns="http://www.w3.org/2000/svg" viewBox="0 0 28.31 28.31">
  <defs>
    <style>
      .cls-1 {
        fill: none;
        stroke: #6c9da6;
        stroke-linecap: round;
        stroke-miterlimit: 10;
        stroke-width: .75px;
      }
    </style>
  </defs>
  <g id="Capa_1-2" data-name="Capa_1">
    <g>
      <path class="cls-1" d="M22.49,5.83c4.6,4.6,4.6,12.06,0,16.66-4.6,4.6-12.06,4.6-16.66,0C1.23,17.89,1.23,10.43,5.83,5.83c4.6-4.6,12.06-4.6,16.66,0M23.91,4.41c-5.38-5.38-14.12-5.38-19.5,0C-.97,9.78-.97,18.53,4.41,23.91c5.38,5.38,14.12,5.38,19.5,0,5.38-5.38,5.38-14.12,0-19.5h0Z"/>
      <polygon class="cls-1" points="7.3 21.01 12.04 12.04 21.01 7.3 16.27 16.27 7.3 21.01"/>
      <path class="cls-1" d="M15.21,15.21c-.58.58-1.53.58-2.11,0-.58-.58-.58-1.53,0-2.11.58-.58,1.53-.58,2.11,0,.58.58.58,1.53,0,2.11Z"/>
    </g>
  </g>
</svg>