<?xml version="1.0" encoding="UTF-8"?>
<svg id="Capa_2" xmlns="http://www.w3.org/2000/svg" viewBox="0 0 33.85 22.94">
  <defs>
    <style>
      .cls-1 {
        stroke-linecap: round;
      }

      .cls-1, .cls-2 {
        fill: none;
        stroke: #0098cb;
        stroke-linejoin: round;
        stroke-width: .75px;
      }
    </style>
  </defs>
  <g id="Capa_1-2" data-name="Capa_1">
    <g>
      <path class="cls-2" d="M31.45,2.92c.67.2,1.35.43,2.02.68v18.96c-4.88-1.72-12.39-1.77-16.55-.32-4.16-1.45-11.67-1.41-16.55.32V3.6c.68-.25,1.35-.48,2.02-.68"/>
      <g>
        <path class="cls-2" d="M2.4,20.04c0-6.12,0-12.25,0-18.37C7.05-.06,12.27-.06,16.93,1.67v18.37c-4.65-1.72-9.88-1.72-14.53,0Z"/>
        <path class="cls-2" d="M16.93,20.04c0-6.12,0-12.25,0-18.37C21.58-.06,26.8-.06,31.45,1.67v18.37c-4.65-1.72-9.88-1.72-14.53,0Z"/>
      </g>
      <g>
        <path class="cls-1" d="M14.91,16.2c-1.71-.53-3.48-.8-5.25-.8s-3.54.27-5.25.8"/>
        <path class="cls-1" d="M14.91,13.18c-1.71-.53-3.48-.8-5.25-.8s-3.54.27-5.25.8"/>
        <path class="cls-1" d="M14.91,10.17c-1.71-.53-3.48-.8-5.25-.8s-3.54.27-5.25.8"/>
        <path class="cls-1" d="M14.91,7.16c-1.71-.53-3.48-.8-5.25-.8s-3.54.27-5.25.8"/>
        <path class="cls-1" d="M14.91,4.15c-1.71-.53-3.48-.8-5.25-.8s-3.54.27-5.25.8"/>
      </g>
      <g>
        <path class="cls-1" d="M18.94,16.2c1.71-.53,3.48-.8,5.25-.8s3.54.27,5.25.8"/>
        <path class="cls-1" d="M18.94,13.18c1.71-.53,3.48-.8,5.25-.8s3.54.27,5.25.8"/>
        <path class="cls-1" d="M18.94,10.17c1.71-.53,3.48-.8,5.25-.8s3.54.27,5.25.8"/>
        <path class="cls-1" d="M18.94,7.16c1.71-.53,3.48-.8,5.25-.8s3.54.27,5.25.8"/>
        <path class="cls-1" d="M18.94,4.15c1.71-.53,3.48-.8,5.25-.8s3.54.27,5.25.8"/>
      </g>
    </g>
  </g>
</svg>